<svg version="1.1" id="Layer_1" xmlns="http://www.w3.org/2000/svg" x="0" y="0" viewBox="0 0 2500 2500" xml:space="preserve"><style>.st1{fill:#fff}</style><path fill="#1245ff" d="M0 0h2500v2500H0z"/><path class="st1" d="M411.84 1097.53h-35.08l-11.64 58.98H331.7l11.95-58.98h-33.87l-11.95 58.98h-43.1v33.42h36.29l-9.07 44.61h-27.22v33.27h20.57l-11.95 58.98h34.18l11.95-58.98h33.57l-11.64 58.98h33.72l11.95-58.98h43.55v-33.27h-36.75l9.07-44.61h27.67v-33.42h-20.87l12.09-58.98zm-62.15 137h-33.57l8.92-44.61h33.42l-8.77 44.61zM597.83 1200.58c-10.43-5.49-26.54-10.81-48.32-15.95-21.78-5.14-35.49-10.08-41.13-14.82-4.44-3.73-6.65-8.22-6.65-13.46 0-5.75 2.37-10.33 7.11-13.76 7.36-5.34 17.54-8.02 30.55-8.02 12.6 0 22.05 2.5 28.35 7.49 6.3 4.99 10.41 13.18 12.33 24.57l44.76-1.97c-.71-20.36-8.09-36.65-22.15-48.85-14.06-12.2-35.01-18.3-62.83-18.3-17.04 0-31.58 2.57-43.63 7.71-12.05 5.14-21.27 12.63-27.67 22.46-6.4 9.83-9.6 20.39-9.6 31.68 0 17.54 6.81 32.41 20.42 44.61 9.68 8.67 26.51 15.98 50.51 21.93 18.65 4.64 30.6 7.86 35.84 9.68 7.66 2.72 13.03 5.92 16.11 9.6 3.07 3.68 4.61 8.14 4.61 13.38 0 8.17-3.66 15.3-10.96 21.4-7.31 6.1-18.17 9.15-32.59 9.15-13.61 0-24.42-3.43-32.44-10.28-8.02-6.85-13.33-17.59-15.95-32.21l-43.55 4.23c2.92 24.8 11.89 43.68 26.92 56.63 15.02 12.96 36.54 19.43 64.57 19.43 19.25 0 35.33-2.7 48.24-8.09 12.9-5.39 22.88-13.63 29.94-24.73 7.06-11.09 10.59-22.99 10.59-35.69 0-14.01-2.95-25.78-8.85-35.31-5.93-9.5-14.09-17.01-24.53-22.51zM844.61 1101.31H668.44v37.5h65.78V1323h44.76v-184.19h65.63zM929.81 1101.31L843.46 1323h47.48l18.3-50.36h88.62l19.36 50.36h48.69l-88.77-221.69h-47.33zm-6.8 133.98l29.94-82.27 30.55 82.27h-60.49zM1158.37 1189.02l-52.17-87.71h-52.48l81.21 128.39v93.3h44.61v-93l81.51-128.69h-51.57zM1431.39 1188.56h-87.71v-87.25h-44.76V1323h44.76v-96.93h87.71V1323h44.76v-221.69h-44.76zM1636.05 1097.53c-18.05 0-33.97 2.93-47.79 8.77-10.38 4.34-19.94 10.99-28.66 19.96-8.72 8.97-15.6 19.11-20.64 30.4-6.76 15.33-10.13 34.28-10.13 56.86 0 35.29 9.73 62.98 29.19 83.1 19.46 20.11 45.67 30.17 78.64 30.17 32.56 0 58.57-10.11 78.03-30.32s29.19-48.21 29.19-84c0-36.09-9.81-64.27-29.41-84.53-19.62-20.28-45.76-30.41-78.42-30.41zm44.39 171.71c-11.44 12.85-26.09 19.28-43.93 19.28-17.85 0-32.57-6.48-44.16-19.43-11.59-12.95-17.39-31.98-17.39-57.09 0-25.5 5.64-44.58 16.94-57.24 11.29-12.65 26.16-18.98 44.61-18.98s33.24 6.25 44.38 18.75 16.71 31.45 16.71 56.86c0 25.72-5.72 45-17.16 57.85zM1900.9 1252.53l-40.22-151.22h-66.99V1323h41.58v-174.51l43.86 174.51h43.09l44.01-174.51V1323h41.59v-221.69h-67.15zM2112.52 1285.65v-60.34h111.3v-37.35h-111.3v-49.15h119.62v-37.5h-164.38V1323h168.62v-37.35z"/><path fill="none" d="M1248.13 1248.71h3.74v2.57h-3.74z"/></svg>